<svg xmlns="http://www.w3.org/2000/svg" width="29.1" height="29.1" viewBox="0 0 29.1 29.1">
  <path id="call_FILL0_wght400_GRAD0_opsz48" d="M147.281-810.9a22.571,22.571,0,0,1-9.558-2.263,31.612,31.612,0,0,1-9.033-6.426,31.611,31.611,0,0,1-6.426-9.033A22.572,22.572,0,0,1,120-838.181a1.763,1.763,0,0,1,.52-1.3,1.763,1.763,0,0,1,1.3-.52h5.658a1.323,1.323,0,0,1,.97.4,2.2,2.2,0,0,1,.566,1.01l1.088,5.078a2.942,2.942,0,0,1-.017,1.045,1.578,1.578,0,0,1-.434.8l-4.032,4.073a33.8,33.8,0,0,0,2.223,3.314,26.292,26.292,0,0,0,2.587,2.91,29.392,29.392,0,0,0,3.152,2.809,25.041,25.041,0,0,0,3.476,2.243l3.84-3.961a2.064,2.064,0,0,1,.936-.606,2.313,2.313,0,0,1,1.045-.081l4.81,1.051a1.93,1.93,0,0,1,1.01.648,1.662,1.662,0,0,1,.4,1.089v5.456a1.763,1.763,0,0,1-.52,1.3A1.762,1.762,0,0,1,147.281-810.9Zm-22.876-18.915,3.274-3.314-.93-4.446h-4.325a18.613,18.613,0,0,0,.546,3.577A28.67,28.67,0,0,0,124.405-829.815Zm14.914,14.671a20.173,20.173,0,0,0,3.6,1.253,18.961,18.961,0,0,0,3.759.566v-4.324l-4.163-.849ZM124.405-829.815ZM139.319-815.144Z" transform="translate(-120 840)" fill="#fff"/>
</svg>
