<svg xmlns="http://www.w3.org/2000/svg" width="33.548" height="33.548" viewBox="0 0 33.548 33.548">
  <path id="chat_icon" d="M86.71-859.829H99.835v-2.516H86.71Zm0-5.451h20.129V-867.8H86.71Zm0-5.452h20.129v-2.516H86.71ZM80-846.452v-31.032a2.414,2.414,0,0,1,.755-1.761A2.414,2.414,0,0,1,82.516-880h28.515a2.414,2.414,0,0,1,1.761.755,2.414,2.414,0,0,1,.755,1.761v21.806a2.414,2.414,0,0,1-.755,1.761,2.414,2.414,0,0,1-1.761.755H86.71Zm5.619-9.226h25.412v-21.806H82.516v25.161Zm-3.1,0v0Z" transform="translate(-80 880)" fill="#fff"/>
</svg>
