<svg id="compose-multiplatform-seeklogo.com" xmlns="http://www.w3.org/2000/svg" width="57.972" height="64.721" viewBox="0 0 57.972 64.721">
  <path id="Path_3" data-name="Path 3" d="M28.745,0a7.231,7.231,0,0,1,3.434.934L54.061,13.293a8.089,8.089,0,0,1,2.3,1.943l.022-.013.326.478.038.055.407.6-.029.017a6.682,6.682,0,0,1,.849,3.151V44.648a7.233,7.233,0,0,1-3.556,6.3L32.772,63.714a7.2,7.2,0,0,1-2.937.964v.032l-1.384.011v-.034a7.239,7.239,0,0,1-2.909-.905L2.552,50.8A5.018,5.018,0,0,1,0,46.467V19.862a8,8,0,0,1,.486-2.677L.46,17.17l.592-1.238.034.018a6.44,6.44,0,0,1,2.219-2.178L24.95,1a7.223,7.223,0,0,1,3.605-1ZM1.7,17.863l-.049.154a6.823,6.823,0,0,0-.281,2.044v26.4A3.646,3.646,0,0,0,3.224,49.6L26.216,62.589a5.863,5.863,0,0,0,2.209.719l.048,0,.005-1.117,0-4.684-.007-5.318-.031,0a4.653,4.653,0,0,1-1.373-.4l-.162-.08-.143-.078L12.839,43.762a3.308,3.308,0,0,1-1.683-2.857V24.915a5.251,5.251,0,0,1,.19-1.472l.044-.15Zm54.248-.786L46.39,22.784l.021.044a4.3,4.3,0,0,1,.4,1.6l0,.151V39.8a4.651,4.651,0,0,1-2.287,4.049L31.417,51.586a4.61,4.61,0,0,1-1.459.555l-.113.02,0,1.082,0,6.268-.009,3.681V63.3l.2-.029a5.831,5.831,0,0,0,1.871-.644l.158-.09L53.72,49.765a5.861,5.861,0,0,0,2.882-5.11V19.532a5.249,5.249,0,0,0-.565-2.281ZM28.08,19.607a2.651,2.651,0,0,0-.592.257L18.7,25.05a2.338,2.338,0,0,0-.661.583,2.411,2.411,0,0,0-.192.288c-.028.051-.055.1-.081.154l-.047.118a2.854,2.854,0,0,0-.211.831,3.381,3.381,0,0,0-.014.34V38.088a1.758,1.758,0,0,0,.895,1.515l9.336,5.274a2.656,2.656,0,0,0,1.328.343l.1,0V48.1l.006,2.755-.007-5.642a2.646,2.646,0,0,0,1.23-.364l8.789-5.186a2.658,2.658,0,0,0,.964-.982c.037-.065.07-.132.1-.2a2.665,2.665,0,0,0,.243-1.132v-10.2a2.3,2.3,0,0,0-.072-.545,2.471,2.471,0,0,0-.116-.347c-.023-.056-.049-.111-.076-.166s-.068-.127-.105-.189l-.04-.064-.041-.064a2.911,2.911,0,0,0-.207-.269,3.019,3.019,0,0,0-.789-.646l-8.886-5.018a2.647,2.647,0,0,0-2.066-.232Zm.488-18.238a5.856,5.856,0,0,0-2.923.814L4,14.951a5.063,5.063,0,0,0-1.625,1.526l-.094.144L12,22.06l.1-.137a4.16,4.16,0,0,1,1.066-.979l.128-.078L26.4,13.13a4.647,4.647,0,0,1,4.65-.045L44.31,20.573a5.164,5.164,0,0,1,1.232.971l.089.1,9.537-5.7-.1-.119a6.738,6.738,0,0,0-1.521-1.251l-.156-.091L31.506,2.127A5.854,5.854,0,0,0,28.569,1.369Z" fill="#4285f4"/>
</svg>
