<svg xmlns="http://www.w3.org/2000/svg" width="36" height="35.445" viewBox="0 0 36 35.445">
  <path id="icons8-github-60" d="M21,3a17.99,17.99,0,0,0-4.362,35.445,2.627,2.627,0,0,1-.138-.874V34.494H14.238A3.132,3.132,0,0,1,11.38,32.98c-.589-1.093-.692-2.766-2.153-3.789-.434-.34-.1-.729.4-.677a4.717,4.717,0,0,1,2.408,1.833A2.313,2.313,0,0,0,14.425,31.5a17.2,17.2,0,0,0,2.537-.182,5.647,5.647,0,0,1,2.382-2.943c-5.994-.617-8.854-3.6-8.854-7.647a7.357,7.357,0,0,1,2-4.849c-.414-1.41-.935-4.285.159-5.38a6.265,6.265,0,0,1,4.719,2.221,13.611,13.611,0,0,1,8.754,0A6.261,6.261,0,0,1,30.848,10.5c1.1,1.1.572,3.984.153,5.391a7.354,7.354,0,0,1,1.992,4.839c0,4.046-2.856,7.026-8.841,7.646A6.314,6.314,0,0,1,27,33.469v4.1a2.639,2.639,0,0,1-.052.4A17.99,17.99,0,0,0,21,3Z" transform="translate(-3 -3)" fill="#32444a"/>
</svg>
