<svg xmlns="http://www.w3.org/2000/svg" width="48.335" height="68.455" viewBox="0 0 48.335 68.455">
  <g id="g842" transform="translate(-582.3 53.9)">
    <path id="path835" d="M797.6,192.986a64.676,64.676,0,0,1,5.236,7.731,40.511,40.511,0,0,1,2.877,7.291c.584,1.68,1.132,2.192,2.293,2.192,1.269,0,1.846-.858,2.293-2.192a41.41,41.41,0,0,1,2.77-7.154,80,80,0,0,1,7.767-10.984c.75-.959,5.545-6.606,7.7-11.085a27.035,27.035,0,0,0,2.633-11.74,23.32,23.32,0,0,0-2.6-10.847l-3.39,4.029-8.725,10.034-1.132,1.644-.238.31-.31.375-.512.614-.75.75-4.244,4.831-5.434,7.057Z" transform="translate(-201.536 -196.645)" fill="none" stroke="#34a853" stroke-width="2"/>
    <path id="path833" d="M621.2,257.431c2.5,5.682,7.255,10.644,10.507,15.022l17.214-20.395a9.036,9.036,0,0,1-6.808,3.181,8.812,8.812,0,0,1-8.863-8.827,9.425,9.425,0,0,1,2.019-5.712l-6.838,8.5Z" transform="translate(-35.643 -276.112)" fill="none" stroke="#fbbc04" stroke-width="2"/>
    <path id="path831" d="M871.16-35.1a22.961,22.961,0,0,1,13.551,11.43L870.952-7.278a9.554,9.554,0,0,0,2.019-5.712,8.911,8.911,0,0,0-8.827-8.827,9.258,9.258,0,0,0-6.844,3.151l7.915-8.772Z" transform="translate(-257.68 -16.74)" fill="none" stroke="#4285f4" stroke-width="2"/>
    <path id="path829" d="M674-44.621A22.982,22.982,0,0,1,691.69-52.9a23.645,23.645,0,0,1,7.046,1.06L684.918-35.412,679.444-40.3Z" transform="translate(-85.298 0)" fill="none" stroke="#1a73e8" stroke-width="2"/>
    <path id="path827" d="M585.557,112.6a26.508,26.508,0,0,1-2.257-10.948A23.061,23.061,0,0,1,588.738,86.7l10.918,9.2Z" transform="translate(0 -131.285)" fill="none" stroke="#ea4335" stroke-width="2"/>
  </g>
</svg>
