<svg id="GraphQL_Logo_Rhodamine_" data-name="GraphQL Logo (Rhodamine)" xmlns="http://www.w3.org/2000/svg" width="56.654" height="63.66" viewBox="0 0 56.654 63.66">
  <path id="Path_2" data-name="Path 2" d="M36.677,6.9l24,13.856V48.473l-24,13.856-24-13.856V20.76ZM15.37,22.314V42.67L33,12.136ZM36.677,11.151l-20.322,35.2H57ZM54.306,49.042H19.048L36.677,59.22Zm3.679-6.371L40.356,12.136,57.984,22.314Z" transform="translate(-8.349 -2.786)" fill="#e10098" fill-rule="evenodd"/>
  <circle id="Ellipse_13" data-name="Ellipse 13" cx="5.672" cy="5.672" r="5.672" transform="translate(22.657 0)" fill="#e10098"/>
  <circle id="Ellipse_14" data-name="Ellipse 14" cx="5.672" cy="5.672" r="5.672" transform="translate(45.311 13.079)" fill="#e10098"/>
  <circle id="Ellipse_15" data-name="Ellipse 15" cx="5.672" cy="5.672" r="5.672" transform="translate(45.311 39.237)" fill="#e10098"/>
  <circle id="Ellipse_16" data-name="Ellipse 16" cx="5.672" cy="5.672" r="5.672" transform="translate(22.657 52.317)" fill="#e10098"/>
  <circle id="Ellipse_17" data-name="Ellipse 17" cx="5.672" cy="5.672" r="5.672" transform="translate(0 39.237)" fill="#e10098"/>
  <circle id="Ellipse_18" data-name="Ellipse 18" cx="5.672" cy="5.672" r="5.672" transform="translate(0 13.079)" fill="#e10098"/>
</svg>
