<svg width="20" height="22" viewBox="0 0 20 22" fill="none" xmlns="http://www.w3.org/2000/svg">
<path d="M8.57937 10.2183L0.0600586 20.2033C0.36993 21.2591 1.35448 21.9999 2.45491 21.9999C2.93388 21.9999 3.35319 21.88 3.71242 21.6402L14.1914 15.6476L8.57937 10.2183Z" fill="#EA4335"/>
<path d="M18.6229 8.81333L14.1314 6.23511L9.34131 10.9713L14.1915 15.6478L18.6825 13.1297C19.4611 12.7099 20.0001 11.8707 20.0001 10.9713C19.94 10.0719 19.4014 9.23272 18.6229 8.81333Z" fill="#FBBC04"/>
<path d="M8.55877 11.7503L14.1317 6.23501L3.77251 0.359663C3.41328 0.119888 2.93388 0 2.45491 0C1.31757 0 0.299544 0.779484 0.0600586 1.79874L8.55877 11.7503Z" fill="#34A853"/>
<path d="M0.0596566 1.79883C0 1.97844 0 2.21865 0 2.45799V19.5448C0 19.7841 0 19.9641 0.0600858 20.2039L9.34206 10.9713L0.0596566 1.79883Z" fill="#4285F4"/>
</svg>
