<svg xmlns="http://www.w3.org/2000/svg" width="60.32" height="60.425" viewBox="0 0 60.32 60.425">
  <g id="connection" transform="translate(227 52)">
    <path id="Path_4" data-name="Path 4" d="M63.321,33.16a5.28,5.28,0,0,0-4.68-5.2A25.772,25.772,0,0,0,54.792,18.7a5.132,5.132,0,0,0-.312-6.968,5.2,5.2,0,0,0-3.64-1.456,4.906,4.906,0,0,0-3.328,1.248A26.9,26.9,0,0,0,38.256,7.68,5.1,5.1,0,0,0,33.16,3a5.28,5.28,0,0,0-5.2,4.68A25.772,25.772,0,0,0,18.7,11.528a5.132,5.132,0,0,0-6.968.312,5.248,5.248,0,0,0-.312,6.968,26.9,26.9,0,0,0-3.848,9.256A5.1,5.1,0,0,0,3,33.16a5.28,5.28,0,0,0,4.68,5.2,25.772,25.772,0,0,0,3.848,9.256,5.132,5.132,0,0,0,.312,6.968,5.224,5.224,0,0,0,3.64,1.56A5.1,5.1,0,0,0,18.808,54.9a26.9,26.9,0,0,0,9.256,3.848,5.229,5.229,0,0,0,10.4,0A25.772,25.772,0,0,0,47.72,54.9a5.043,5.043,0,0,0,6.968-.312A5.248,5.248,0,0,0,55,47.616a26.9,26.9,0,0,0,3.848-9.256A5.278,5.278,0,0,0,63.321,33.16ZM50.84,45.64a5.883,5.883,0,0,0-2.912.832L45.64,44.184A16.961,16.961,0,0,0,49.8,34.2h3.328a5.123,5.123,0,0,0,3.536,3.848,25.222,25.222,0,0,1-3.328,8.112A7.149,7.149,0,0,0,50.84,45.64ZM34.2,53.024V49.7a16.335,16.335,0,0,0,9.984-4.16l2.392,2.392a5.176,5.176,0,0,0-.312,5.2,21.3,21.3,0,0,1-8.112,3.328A5.516,5.516,0,0,0,34.2,53.024ZM28.272,56.56a25.222,25.222,0,0,1-8.112-3.328,5.176,5.176,0,0,0-.312-5.2L22.24,45.64a16.961,16.961,0,0,0,9.984,4.16v3.328A4.83,4.83,0,0,0,28.272,56.56Zm-15.184-10.3A21.3,21.3,0,0,1,9.76,38.152,5.293,5.293,0,0,0,13.3,34.3h3.328a16.335,16.335,0,0,0,4.16,9.984L18.392,46.68A4.922,4.922,0,0,0,13.088,46.264ZM15.48,20.68a5.883,5.883,0,0,0,2.912-.832l2.392,2.392a16.961,16.961,0,0,0-4.16,9.984H13.3A5.123,5.123,0,0,0,9.76,28.376a25.222,25.222,0,0,1,3.328-8.112A9.626,9.626,0,0,0,15.48,20.68ZM32.12,13.3v3.328a16.335,16.335,0,0,0-9.984,4.16l-2.392-2.392a5.176,5.176,0,0,0,.312-5.2,21.3,21.3,0,0,1,8.112-3.328A5.516,5.516,0,0,0,32.12,13.3ZM38.048,9.76a25.222,25.222,0,0,1,8.112,3.328,5.176,5.176,0,0,0,.312,5.2L44.184,20.68A16.961,16.961,0,0,0,34.2,16.52V13.192A4.833,4.833,0,0,0,38.048,9.76Zm15.184,10.3a21.3,21.3,0,0,1,3.328,8.112,5.293,5.293,0,0,0-3.536,3.848H49.7a16.335,16.335,0,0,0-4.16-9.984l2.392-2.392a4.553,4.553,0,0,0,2.912,1.04A4.831,4.831,0,0,0,53.232,20.056ZM33.16,47.72c-1.144,0-2.6-2.5-3.432-6.864a12.92,12.92,0,0,1,3.432-.416,19.332,19.332,0,0,1,3.432.416C35.76,45.224,34.3,47.72,33.16,47.72Zm0-9.36a21.712,21.712,0,0,0-3.744.416A30.627,30.627,0,0,1,29.1,34.2h8.32c0,1.664-.208,3.224-.312,4.576A26.882,26.882,0,0,0,33.16,38.36ZM29,32.12c0-1.664.208-3.224.312-4.576a15.312,15.312,0,0,0,3.744.416,21.713,21.713,0,0,0,3.744-.416,30.627,30.627,0,0,1,.312,4.576Zm4.16-6.24a19.332,19.332,0,0,1-3.432-.416C30.56,21.1,32.016,18.6,33.16,18.6s2.6,2.5,3.432,6.864A19.332,19.332,0,0,1,33.16,25.88Zm3.432-6.864a13.994,13.994,0,0,1,6.136,3.224,13.344,13.344,0,0,1-4.16,2.6A16.644,16.644,0,0,0,36.592,19.016Zm-8.84,5.824a14.654,14.654,0,0,1-4.16-2.6,15.162,15.162,0,0,1,6.136-3.224A16.644,16.644,0,0,0,27.752,24.84ZM22.136,23.7a18.09,18.09,0,0,0,5.2,3.224,42.1,42.1,0,0,0-.416,5.2H18.6A15.021,15.021,0,0,1,22.136,23.7ZM26.92,34.2a42.1,42.1,0,0,0,.416,5.2,16.077,16.077,0,0,0-5.2,3.224A14.226,14.226,0,0,1,18.7,34.2Zm.832,7.28A19.071,19.071,0,0,0,29.728,47.3a13.994,13.994,0,0,1-6.136-3.224A13.344,13.344,0,0,1,27.752,41.48Zm10.816,0a14.654,14.654,0,0,1,4.16,2.6A15.162,15.162,0,0,1,36.592,47.3,16.644,16.644,0,0,0,38.568,41.48Zm5.616,1.144a18.09,18.09,0,0,0-5.2-3.224,42.1,42.1,0,0,0,.416-5.2h8.32A15.021,15.021,0,0,1,44.184,42.624ZM39.4,32.12a42.1,42.1,0,0,0-.416-5.2,16.077,16.077,0,0,0,5.2-3.224,14.226,14.226,0,0,1,3.432,8.424Zm21.84,1.04a3.12,3.12,0,1,1-3.12-3.12A3.064,3.064,0,0,1,61.241,33.16ZM53.024,13.3a2.993,2.993,0,0,1,.936,2.184,2.832,2.832,0,0,1-.936,2.184,3.209,3.209,0,0,1-4.368,0,2.832,2.832,0,0,1-.936-2.184,2.832,2.832,0,0,1,.936-2.184,2.993,2.993,0,0,1,2.184-.936A2.832,2.832,0,0,1,53.024,13.3ZM33.16,5.08A3.064,3.064,0,0,1,36.28,8.2a3.12,3.12,0,0,1-6.24,0A3.064,3.064,0,0,1,33.16,5.08ZM13.3,13.3a3.171,3.171,0,0,1,2.184-.936,3.12,3.12,0,0,1,2.184,5.3A3.089,3.089,0,0,1,13.3,13.3ZM5.08,33.16A3.064,3.064,0,0,1,8.2,30.04a3.12,3.12,0,0,1,0,6.24A3.064,3.064,0,0,1,5.08,33.16ZM13.3,53.024a3.089,3.089,0,0,1,4.368-4.368A3.089,3.089,0,1,1,13.3,53.024ZM33.16,61.241a3.12,3.12,0,1,1,3.12-3.12A3.064,3.064,0,0,1,33.16,61.241Zm19.864-8.216a3.209,3.209,0,0,1-4.368,0,3.016,3.016,0,0,1,0-4.368,2.993,2.993,0,0,1,2.184-.936,2.832,2.832,0,0,1,2.184.936,2.993,2.993,0,0,1,.936,2.184A2.832,2.832,0,0,1,53.024,53.024Z" transform="translate(-230 -55)" fill="#fff"/>
  </g>
</svg>
