<svg xmlns="http://www.w3.org/2000/svg" xmlns:xlink="http://www.w3.org/1999/xlink" width="30.622" height="31.366" viewBox="0 0 30.622 31.366">
  <defs>
    <radialGradient id="radial-gradient" cx="0.284" cy="0.246" r="0.884" gradientTransform="matrix(0.726, -0.707, -0.726, -0.707, 2.573, 5.569)" gradientUnits="objectBoundingBox">
      <stop offset="0.353" stop-color="#ffca28"/>
      <stop offset="0.872" stop-color="#ffb300"/>
    </radialGradient>
  </defs>
  <g id="waving-hand-svgrepo-com" transform="translate(-6.811 -3.935)">
    <path id="Path_9" data-name="Path 9" d="M27.687,38.89c-1.094-.878-11.253-10.758-11.367-10.866a2.7,2.7,0,0,1-.809-1.341,1.278,1.278,0,0,1,.415-1.191,1.656,1.656,0,0,1,1.185-.512,2.225,2.225,0,0,1,1.548.717l4.606,4.426a.414.414,0,0,0,.584-.587L16.5,21.942A1.858,1.858,0,0,1,16.29,19.2a1.656,1.656,0,0,1,1.185-.512,2.225,2.225,0,0,1,1.548.717l7.523,7.334a.415.415,0,0,0,.584,0,.415.415,0,0,0,0-.584L18.1,16.893a2.339,2.339,0,0,1-.715-1.407,1.746,1.746,0,0,1,1.692-1.842,2.233,2.233,0,0,1,1.548.715l9.215,8.985a.415.415,0,0,0,.584,0,.415.415,0,0,0,0-.584l-6.692-6.877a2.316,2.316,0,0,1-.715-1.407,1.746,1.746,0,0,1,1.692-1.842,2.225,2.225,0,0,1,1.548.717c2.454,2.41,8.86,8.711,9.076,8.943.823.568.989-.291,1.03-.848.047-.648-.7-2.911-.263-4.947.726-2.706,2.817-2.263,2.864-2.241,1.147.537.928,1.341.521,2.955l-.042.319c-.427,2.111,2.5,8.365,2.72,8.833,1.149,2.515,2.473,7.614-1.911,12A9.122,9.122,0,0,1,27.687,38.89Z" transform="translate(-6.275 -6.287)" fill="url(#radial-gradient)"/>
    <path id="Path_10" data-name="Path 10" d="M32.772,40.5a9.9,9.9,0,0,1-6.442-2.387c-.889-.726-6.5-6.143-11.071-10.578-.186-.18-.294-.283-.3-.3a3.1,3.1,0,0,1-.931-1.568,1.694,1.694,0,0,1,.529-1.559,2.059,2.059,0,0,1,1.479-.634,2.632,2.632,0,0,1,1.842.839l4.6,4.42-7.356-7.595a2.273,2.273,0,0,1-.2-3.321,2.059,2.059,0,0,1,1.479-.634,2.632,2.632,0,0,1,1.842.839l7.517,7.329L16.721,16.1a2.74,2.74,0,0,1-.831-1.659,2.16,2.16,0,0,1,2.1-2.3,2.638,2.638,0,0,1,1.842.836l9.212,8.982-6.692-6.877a2.724,2.724,0,0,1-.831-1.662,2.159,2.159,0,0,1,2.1-2.293,2.632,2.632,0,0,1,1.842.839l2,1.958c3.559,3.49,6.534,6.412,6.852,6.739a.519.519,0,0,0,.443.13c.055-.028.116-.155.105-.424-.017-.471-.083-1.055-.152-1.673a12.35,12.35,0,0,1-.1-3.374,3.354,3.354,0,0,1,1.742-2.363,2.5,2.5,0,0,1,1.706-.169c1.44.676,1.155,1.806.762,3.374l-.008.039-.044.324c-.288,1.418,1.191,5.337,2.67,8.531l.022.044a10.72,10.72,0,0,1-1.994,12.466,9.3,9.3,0,0,1-6.7,2.93ZM16.032,24.311a1.253,1.253,0,0,0-.892.391.871.871,0,0,0-.3.823,2.348,2.348,0,0,0,.692,1.122s.114.111.3.294c6.487,6.3,10.4,10.037,11.029,10.542l.033.03a8.671,8.671,0,0,0,11.982-.529,9.92,9.92,0,0,0,1.825-11.533l-.019-.042c-.953-2.055-3.119-7.041-2.734-9.029l.064-.415c.427-1.7.451-2.05-.271-2.4-.213-.039-1.742-.224-2.327,1.955a12.4,12.4,0,0,0,.119,3.088c.072.634.138,1.235.155,1.737a1.155,1.155,0,0,1-.573,1.2,1.308,1.308,0,0,1-1.357-.255l-.036-.033c-.169-.183-4.188-4.124-6.847-6.733l-2-1.964a1.466,1.466,0,0,0-2.149-.208,1.23,1.23,0,0,0-.388,1,1.907,1.907,0,0,0,.6,1.149l6.705,6.877a.834.834,0,0,1-.006,1.169.855.855,0,0,1-1.166.008l-9.22-8.988a1.467,1.467,0,0,0-2.149-.2,1.23,1.23,0,0,0-.388,1,1.916,1.916,0,0,0,.6,1.147l9.038,9.267a.832.832,0,0,1-.006,1.169.855.855,0,0,1-1.166.008l-7.525-7.337a1.4,1.4,0,1,0-1.942,1.944l7.359,7.6a.828.828,0,0,1-.008,1.163.852.852,0,0,1-1.163.011l-4.606-4.426A1.821,1.821,0,0,0,16.032,24.311Z" transform="translate(-5.194 -5.202)" fill="#eda600"/>
    <path id="Path_11" data-name="Path 11" d="M82.2,46.54a11.383,11.383,0,0,0,.958,10.938c.258.471.7.241.474-.244-2.756-5.9.133-10.145.133-10.145Z" transform="translate(-53.801 -30.805)" fill="#eda600"/>
    <g id="Group_51" data-name="Group 51" transform="translate(22.421 3.935)">
      <path id="Path_12" data-name="Path 12" d="M63.17,4.091a5.412,5.412,0,0,1,2.6,0,4.607,4.607,0,0,1,2.363,1.36,4.753,4.753,0,0,1,1.141,2.473,4.178,4.178,0,0,1-.415,2.581A8.784,8.784,0,0,0,68.4,8.132,6.607,6.607,0,0,0,67.934,7.1a5.556,5.556,0,0,0-.629-.908A5.294,5.294,0,0,0,65.491,4.9,13.7,13.7,0,0,0,63.17,4.091Z" transform="translate(-63.17 -3.935)" fill="#b0bec5"/>
      <path id="Path_13" data-name="Path 13" d="M64,13.2a2.235,2.235,0,0,1,1.587-.258,3.029,3.029,0,0,1,1.493.751,3.511,3.511,0,0,1,.889,1.374,4.475,4.475,0,0,1,.174.776,3.846,3.846,0,0,1-.028.8,5.583,5.583,0,0,1-.482-.6c-.163-.186-.291-.382-.438-.562a10,10,0,0,0-.87-.969,5.592,5.592,0,0,0-1.016-.74A6.718,6.718,0,0,0,64,13.2Z" transform="translate(-63.77 -10.414)" fill="#90a4ae"/>
    </g>
    <g id="Group_52" data-name="Group 52" transform="translate(6.811 23.942)">
      <path id="Path_14" data-name="Path 14" d="M6.816,77.34a14.08,14.08,0,0,0,1.271,2.1,5.33,5.33,0,0,0,1.64,1.5,5.622,5.622,0,0,0,1.022.427,6.657,6.657,0,0,0,1.111.244,8.8,8.8,0,0,0,2.418-.053,4.181,4.181,0,0,1-2.437.944,4.749,4.749,0,0,1-2.656-.6,4.589,4.589,0,0,1-1.822-2.027A5.343,5.343,0,0,1,6.816,77.34Z" transform="translate(-6.811 -77.016)" fill="#b0bec5"/>
      <path id="Path_15" data-name="Path 15" d="M15.98,76.17a6.934,6.934,0,0,0,.825,1.166,5.555,5.555,0,0,0,.936.839,9.918,9.918,0,0,0,1.13.651c.2.105.424.188.64.31a5.178,5.178,0,0,1,.69.346,3.94,3.94,0,0,1-.773.191,4.491,4.491,0,0,1-.795-.011,3.489,3.489,0,0,1-1.529-.582,3.039,3.039,0,0,1-1.044-1.3A2.225,2.225,0,0,1,15.98,76.17Z" transform="translate(-13.357 -76.17)" fill="#90a4ae"/>
    </g>
  </g>
</svg>
